<svg version="1.2" xmlns="http://www.w3.org/2000/svg" viewBox="0 0 372 263" width="372" height="263">
	<title>comments-svg</title>
	<style>
		.s0 { fill: #cccccc } 
	</style>
	<g id="Layer">
		<path id="Layer" fill-rule="evenodd" class="s0" d="m170.8 160c0 35.3-28.7 64-64 64-35.3 0-64-28.7-64-64 0-4.1 3.3-7.5 7.5-7.5h113c4.1 0 7.5 3.4 7.5 7.5zm-15.6 7.5h-96.9c3.6 23.5 24 41.5 48.5 41.5 24.4 0 44.8-18 48.4-41.5z"/>
		<path id="Layer" fill-rule="evenodd" class="s0" d="m371.2 97.8c0 52-42.3 94.3-94.3 94.3-12.4 0-24.5-2.4-35.8-7.1-9.1 4.9-19.2 7.7-29.5 8-16.6 41.4-56.8 68.8-101.8 68.8-60.6 0-109.8-49.2-109.8-109.8 0-60.5 49.2-109.7 109.8-109.7 28.7 0 55.7 11 76.1 30.6 10.9-40 47.5-69.5 91-69.5 52 0 94.3 42.3 94.3 94.4zm-185.3 78.5c7.3-5.3 12.9-12.4 16.5-20.6-12.8-16.5-19.9-36.9-19.9-57.9q0-3.2 0.2-6.3c-18.1-21.8-44.5-34.2-72.9-34.2-52.3 0-94.8 42.5-94.8 94.7 0 52.3 42.5 94.8 94.8 94.8 37.3 0 70.8-21.8 86.1-55.2q-4-0.8-7.9-2.1c-2.7-0.9-4.6-3.2-5-6-0.4-2.7 0.7-5.5 2.9-7.2zm170.3-78.5c0-43.8-35.6-79.4-79.3-79.4-43.8 0-79.4 35.6-79.4 79.4 0 18.9 6.8 37.3 19.2 51.6 1.7 2.1 2.3 4.9 1.4 7.4q-1 2.9-2.3 5.7-1.2 2.8-2.8 5.4-1.5 2.7-3.2 5.2-1.8 2.5-3.8 4.8 1.7 0.1 3.5 0.1c9.6 0 19-2.6 27.1-7.7 2.2-1.3 4.8-1.5 7.1-0.5 10.5 4.9 21.6 7.3 33.2 7.3 43.7 0 79.3-35.6 79.3-79.3z"/>
		<path id="Layer" class="s0" d="m169.7 118.7c-6.6 0-12 5.4-12 12.1 0 6.6 5.4 12 12 12 6.6 0 12-5.4 12-12 0-6.7-5.4-12.1-12-12.1zm-117.8 12.1c0-6.7-5.4-12.1-12.1-12.1-6.6 0-12 5.4-12 12.1 0 6.6 5.4 12 12 12 6.7 0 12.1-5.4 12.1-12zm251.7-1.6h-53.4c-4.2 0-7.5 3.4-7.5 7.5 0 4.1 3.3 7.5 7.5 7.5h53.4c4.1 0 7.5-3.4 7.5-7.5 0-4.1-3.4-7.5-7.5-7.5zm12.5-34.5h-78.5c-4.1 0-7.5 3.4-7.5 7.5 0 4.1 3.4 7.5 7.5 7.5h78.5c4.1 0 7.5-3.4 7.5-7.5 0-4.1-3.4-7.5-7.5-7.5zm6.1-34.5h-90.7c-4.1 0-7.5 3.4-7.5 7.5 0 4.1 3.4 7.5 7.5 7.5h90.7c4.1 0 7.5-3.4 7.5-7.5 0-4.1-3.4-7.5-7.5-7.5z"/>
	</g>
</svg>