<svg version="1.2" xmlns="http://www.w3.org/2000/svg" viewBox="0 0 456 456" width="456" height="456">
	<title>rss-svg</title>
	<style>
		.s0 { fill: #cccccc } 
	</style>
	<g id="Layer">
		<g id="Layer">
			<path id="Layer" fill-rule="evenodd" class="s0" d="m0 0h455.7v455.7h-455.7zm296.2 159.2c-61.8-61.8-143.9-95.8-231.4-95.8v64.4c70.3 0 136.3 27.3 185.9 76.9 49.6 49.6 76.9 115.6 76.9 185.9h64.4c0-87.5-34-169.6-95.8-231.4zm-232.2 12.8v64.4c84.9 0 153.9 69 153.9 153.9h64.4c0-120.3-97.9-218.3-218.3-218.3zm91.9 174.3c0-25.5-20.6-46.1-46.1-46.1-25.5 0-46.1 20.6-46.1 46.1 0 25.5 20.6 46.1 46.1 46.1 25.5 0 46.1-20.6 46.1-46.1z"/>
		</g>
	</g>
</svg>