<svg version="1.2" xmlns="http://www.w3.org/2000/svg" viewBox="0 0 256 256" width="256" height="256"><style>.a{fill:#1185fe}</style><path class="a" d="m57.9 34.5c28.4 21.3 58.9 64.4 70.1 87.6 11.2-23.2 41.7-66.3 70.1-87.6 20.4-15.4 53.6-27.3 53.6 10.5 0 7.6-4.4 63.5-6.9 72.6-8.8 31.5-41 39.6-69.6 34.7 50 8.5 62.7 36.7 35.2 64.9-52.1 53.6-75-13.4-80.8-30.6-1.1-3.1-1.6-4.6-1.6-3.4 0-1.2-0.5 0.3-1.6 3.4-5.8 17.2-28.7 84.2-80.8 30.6-27.5-28.2-14.8-56.4 35.2-64.9-28.6 4.9-60.8-3.2-69.6-34.7-2.5-9.1-6.9-65-6.9-72.6 0-37.8 33.2-25.9 53.6-10.5z"/></svg>