<svg version="1.2" xmlns="http://www.w3.org/2000/svg" viewBox="0 0 277 255" width="277" height="255"><style>.a{fill:#00b400}</style><path fill-rule="evenodd" class="a" d="m274.3 1.6l-2.3 8c-0.1 0.2-7.5 25.8-15.6 51.1-17 52.6-20.2 53.2-22.6 53.6l-1.2-0.1-2.9-0.8 0.8 2.8c0.2 0.6 0.4 1.6-0.1 2.8-1.7 4.1-12 11.4-22.9 13.2-4.8 0.8-9.4 0.4-13.5-1.1l-3.6 5 3.8 2.5-2.2 3.2-3.8-2.6-17 23.6-11.4 6.4 24.3-32.9-5.2-3.5 2.2-3.1 5.2 3.6 3.3-4.4c-0.4-0.3-0.9-0.5-1.2-0.8-6.8-5.1-9.2-12.9-6.8-22.6 2-8.4 8.2-18.6 11.7-19.2h4.6l-2.5-3.4-0.1-0.7c-1.1-10.9 55.4-60.3 72.7-75.2zm-16.3 37.4l-8.4 2.5-1.7-10.2c-25.2 22.9-46.3 44.2-47.6 50l7.5 10h-13.5c-2.1 1.8-8.4 11.4-8.7 20.4-0.2 5.3 1.7 9.5 5.7 12.5 0.4 0.2 0.8 0.4 1.2 0.7l0.7-0.9 40.7-56.2 0.9 0.4-37.6 58.6-0.1 0.1c2.9 0.8 6.1 1 9.6 0.4 9.2-1.5 17.4-7.6 18.9-9.8l-3.1-11.4 10.4 3.1c3.9-4.9 14.4-35.7 25.1-70.2zm6.8-22.7c-4.7 4.1-9.4 8.3-14 12.4l1.5 8.5 6.8-2c2-6.2 3.9-12.6 5.7-18.9z"/><path fill-rule="evenodd" class="a" d="m210.6 227.3v-89.2c0 0 9.8-2.1 15.2-6.1 0-1.4 0 114.8 0 114.8h-96.1c-3.4 3.1-8.4 5-14 5-5.6 0-10.5-1.9-14-5h-98.5c0 0 0-114.9 0-133.8 0-3.7 4.1-5.9 10.8-7.2v-12.9l2-0.8c0.7-0.3 17.2-6.7 39.1-6.7 23.6 0 43.9 7.2 60.4 21.3 16.5-14.1 36.8-21.3 60.3-21.3 3.4 0 6.7 0.2 9.8 0.4l-4.3 6.1q-2.7-0.1-5.5-0.1c-21.7 0-40.3 6.5-55.5 19.3v77.6l-3.8-4.1v51.6c8.1-3.6 35-14.4 63.2-14.4 11.5 0 21.9 1.9 30.9 5.5zm-96.2-42.7l-3.8 4.1v-77.6c-15.2-12.8-33.8-19.3-55.5-19.3-16.5 0-29.9 3.8-34.8 5.5v130c8.5-3.4 18.3-5.1 29.5-5.1 28.2 0 56.4 10.7 64.6 14.1zm96.2 42.7q-0.1 0-0.1 0z"/><path class="a" d="m168 115.7c-6-0.3-20.5-3.1-38.1 2.5l2.1 8.1c16.6-5.2 29.4-3.7 35.5-2.9q2 0.2 3 0.2v-7.6c-0.5 0-1.3-0.2-2.5-0.3z"/><path class="a" d="m168 142.7c-6-0.3-20.5-3.1-38.1 2.5l2.1 8.1c16.6-5.2 29.4-3.7 35.5-2.9q2 0.2 3 0.2v-7.6c-0.5 0-1.3-0.2-2.5-0.3z"/><path class="a" d="m29.5 201.7l2.2 7.8c33.7-8.9 64.1 7.6 64.4 7.8l3.2-7c-1.3-0.7-33.9-18.1-69.8-8.6z"/><path class="a" d="m29.5 171.7l2.2 7.8c33.7-8.9 64.1 7.6 64.4 7.8l3.2-7c-1.3-0.7-33.9-18.1-69.8-8.6z"/><path class="a" d="m29.5 141.7l2.2 7.8c33.7-8.9 64.1 7.6 64.4 7.8l3.2-7c-1.3-0.7-33.9-18.1-69.8-8.6z"/><path class="a" d="m29.5 111.7l2.2 7.8c33.7-8.9 64.1 7.6 64.4 7.8l3.2-7c-1.3-0.7-33.9-18.1-69.8-8.6z"/></svg>