<svg version="1.2" xmlns="http://www.w3.org/2000/svg" viewBox="0 0 456 456" width="456" height="456"><style>.a{fill:#00b400}</style><path fill-rule="evenodd" class="a" d="m452 52v352c0 26.5-21.5 48-48 48h-352c-26.5 0-48-21.5-48-48v-352c0-26.5 21.5-48 48-48h352c26.5 0 48 21.5 48 48zm-64 324.2c-6-167-140.4-302.2-308.2-308.2-6.5-0.2-11.8 5-11.8 11.4v34.4c0 6.1 4.9 11.1 11 11.4 136.6 5.6 246.2 115.2 251.8 251.8 0.3 6.1 5.3 11 11.4 11h34.4c6.4 0 11.6-5.3 11.4-11.8zm-103-0.2c-6-110.4-94.5-199-205-205-6.5-0.3-12 4.9-12 11.5v34.3c0 6 4.6 11.1 10.6 11.4 79.9 5.2 143.9 69.1 149.2 149.2 0.3 6 5.4 10.6 11.4 10.6h34.3c6.6 0 11.8-5.5 11.5-12zm-121-36c0-26.5-21.5-48-48-48-26.5 0-48 21.5-48 48 0 26.5 21.5 48 48 48 26.5 0 48-21.5 48-48z"/></svg>