<svg version="1.2" xmlns="http://www.w3.org/2000/svg" viewBox="0 0 1920 1080" width="1920" height="1080">
	<title>circles-bg</title>
	<style>
		.s0 { fill: #008200 } 
		.s1 { fill: #05ec8d } 
		.s2 { fill: #00ff00 } 
		.s3 { fill: #12ff8d } 
	</style>
	<g id="dark green circles" style="opacity: .5">
		<path id="Layer 1" class="s0" d="m0.4 1411.7c-183.3 0-331.4-148.1-331.4-331.3 0-183.3 148.1-331.4 331.4-331.4 183.2 0 331.3 148.1 331.3 331.4 0 183.2-148.1 331.3-331.3 331.3z"/>
		<path id="Layer 1 copy 22" class="s0" d="m0.4 331.7c-183.3 0-331.4-148.1-331.4-331.3 0-183.3 148.1-331.4 331.4-331.4 183.2 0 331.3 148.1 331.3 331.4 0 183.2-148.1 331.3-331.3 331.3z"/>
		<path id="Layer 1 copy 23" class="s0" d="m1920.4 331.7c-183.3 0-331.4-148.1-331.4-331.3 0-183.3 148.1-331.4 331.4-331.4 183.2 0 331.3 148.1 331.3 331.4 0 183.2-148.1 331.3-331.3 331.3z"/>
		<path id="Layer 1 copy 24" class="s0" d="m1920.4 1411.7c-183.3 0-331.4-148.1-331.4-331.3 0-183.3 148.1-331.4 331.4-331.4 183.2 0 331.3 148.1 331.3 331.4 0 183.2-148.1 331.3-331.3 331.3z"/>
		<path id="Layer 1 copy 25" class="s0" d="m492.8 911.5c-116 0-209.8-93.8-209.8-209.7 0-116 93.8-209.8 209.8-209.8 115.9 0 209.7 93.8 209.7 209.8 0 115.9-93.8 209.7-209.7 209.7z"/>
		<path id="Layer 1 copy 26" class="s0" d="m752 535c-115 0-208-93-208-208 0-115 93-208 208-208 115 0 208 93 208 208 0 115-93 208-208 208z"/>
		<path id="Layer 1 copy 29" class="s1" d="m144 548c-59.2 0-107-47.8-107-107 0-59.2 47.8-107 107-107 59.2 0 107 47.8 107 107 0 59.2-47.8 107-107 107z"/>
		<path id="Layer 1 copy 30" class="s1" d="m1798 660c-59.2 0-107-47.8-107-107 0-59.2 47.8-107 107-107 59.2 0 107 47.8 107 107 0 59.2-47.8 107-107 107z"/>
		<path id="Layer 1 copy 31" class="s1" d="m909.7 1052.5c-66.7 0-120.7-54-120.7-120.8 0-66.7 54-120.7 120.7-120.7 66.8 0 120.8 54 120.8 120.7 0 66.8-54 120.8-120.8 120.8z"/>
		<path id="Layer 1 copy 32" class="s1" d="m1013.5 760c-40.6 0-73.5-32.9-73.5-73.5 0-40.6 32.9-73.5 73.5-73.5 40.6 0 73.5 32.9 73.5 73.5 0 40.6-32.9 73.5-73.5 73.5z"/>
		<path id="Layer 1 copy 38" class="s1" d="m1476.5 265c-50.6 0-91.5-40.9-91.5-91.5 0-50.6 40.9-91.5 91.5-91.5 50.6 0 91.5 40.9 91.5 91.5 0 50.6-40.9 91.5-91.5 91.5z"/>
		<path id="Layer 1 copy 33" class="s0" d="m491.7 138.5c-54.6 0-98.7-44.1-98.7-98.8 0-54.6 44.1-98.7 98.7-98.7 54.7 0 98.8 44.1 98.8 98.7 0 54.7-44.1 98.8-98.8 98.8z"/>
		<path id="Layer 1 copy 36" class="s1" d="m612.5 1088c-24.6 0-44.5-19.9-44.5-44.5 0-24.6 19.9-44.5 44.5-44.5 24.6 0 44.5 19.9 44.5 44.5 0 24.6-19.9 44.5-44.5 44.5z"/>
		<path id="Layer 1 copy 37" class="s1" d="m780.5 45c-24.6 0-44.5-19.9-44.5-44.5 0-24.6 19.9-44.5 44.5-44.5 24.6 0 44.5 19.9 44.5 44.5 0 24.6-19.9 44.5-44.5 44.5z"/>
		<path id="Layer 1 copy 34" class="s0" d="m1144.7 87.5c-54.6 0-98.7-44.1-98.7-98.8 0-54.6 44.1-98.7 98.7-98.7 54.7 0 98.8 44.1 98.8 98.7 0 54.7-44.1 98.8-98.8 98.8z"/>
		<path id="Layer 1 copy 28" class="s0" d="m1286.9 636.9c-132.1 0-238.9-106.8-238.9-239 0-132.1 106.8-238.9 238.9-238.9 132.2 0 239 106.8 239 238.9 0 132.2-106.8 239-239 239z"/>
		<path id="Layer 1 copy 27" class="s0" d="m1385.9 1126.9c-132.1 0-238.9-106.8-238.9-239 0-132.1 106.8-238.9 238.9-238.9 132.2 0 239 106.8 239 238.9 0 132.2-106.8 239-239 239z"/>
	</g>
	<g id="light green circles">
		<path id="Layer 1" class="s2" d="m-0.3 212.5c-38 0-68.7-30.7-68.7-68.8 0-38 30.7-68.7 68.7-68.7 38.1 0 68.8 30.7 68.8 68.7 0 38.1-30.7 68.8-68.8 68.8z"/>
		<path id="Layer 1 copy" class="s2" d="m-0.3 682.5c-38 0-68.7-30.7-68.7-68.8 0-38 30.7-68.7 68.7-68.7 38.1 0 68.8 30.7 68.8 68.7 0 38.1-30.7 68.8-68.8 68.8z"/>
		<path id="Layer 1 copy 7" class="s2" d="m1919.7 212.5c-38 0-68.7-30.7-68.7-68.8 0-38 30.7-68.7 68.7-68.7 38.1 0 68.8 30.7 68.8 68.7 0 38.1-30.7 68.8-68.8 68.8z"/>
		<path id="Layer 1 copy 8" class="s2" d="m1919.7 682.5c-38 0-68.7-30.7-68.7-68.8 0-38 30.7-68.7 68.7-68.7 38.1 0 68.8 30.7 68.8 68.7 0 38.1-30.7 68.8-68.8 68.8z"/>
		<path id="Layer 1 copy 2" class="s2" d="m481.7 68.5c-38 0-68.7-30.7-68.7-68.8 0-38 30.7-68.7 68.7-68.7 38.1 0 68.8 30.7 68.8 68.7 0 38.1-30.7 68.8-68.8 68.8z"/>
		<path id="Layer 1 copy 3" class="s2" d="m1271.7 68.5c-38 0-68.7-30.7-68.7-68.8 0-38 30.7-68.7 68.7-68.7 38.1 0 68.8 30.7 68.8 68.7 0 38.1-30.7 68.8-68.8 68.8z"/>
		<path id="Layer 1 copy 9" class="s2" d="m481.7 1148.5c-38 0-68.7-30.7-68.7-68.8 0-38 30.7-68.7 68.7-68.7 38.1 0 68.8 30.7 68.8 68.7 0 38.1-30.7 68.8-68.8 68.8z"/>
		<path id="Layer 1 copy 10" class="s2" d="m1271.7 1148.5c-38 0-68.7-30.7-68.7-68.8 0-38 30.7-68.7 68.7-68.7 38.1 0 68.8 30.7 68.8 68.7 0 38.1-30.7 68.8-68.8 68.8z"/>
		<path id="Layer 1 copy 4" class="s2" d="m909.7 608.5c-38 0-68.7-30.7-68.7-68.8 0-38 30.7-68.7 68.7-68.7 38.1 0 68.8 30.7 68.8 68.7 0 38.1-30.7 68.8-68.8 68.8z"/>
		<path id="Layer 1 copy 14" class="s2" d="m1363.7 326.5c-38 0-68.7-30.7-68.7-68.8 0-38 30.7-68.7 68.7-68.7 38.1 0 68.8 30.7 68.8 68.7 0 38.1-30.7 68.8-68.8 68.8z"/>
		<path id="Layer 1 copy 17" class="s3" d="m1237.7 574.5c-38 0-68.7-30.7-68.7-68.8 0-38 30.7-68.7 68.7-68.7 38.1 0 68.8 30.7 68.8 68.7 0 38.1-30.7 68.8-68.8 68.8z"/>
		<path id="Layer 1 copy 18" class="s2" d="m1009.7 945.5c-38 0-68.7-30.7-68.7-68.8 0-38 30.7-68.7 68.7-68.7 38.1 0 68.8 30.7 68.8 68.7 0 38.1-30.7 68.8-68.8 68.8z"/>
		<path id="Layer 1 copy 19" class="s2" d="m1360.7 872.5c-38 0-68.7-30.7-68.7-68.8 0-38 30.7-68.7 68.7-68.7 38.1 0 68.8 30.7 68.8 68.7 0 38.1-30.7 68.8-68.8 68.8z"/>
		<path id="Layer 1 copy 20" class="s2" d="m1681.7 376.5c-38 0-68.7-30.7-68.7-68.8 0-38 30.7-68.7 68.7-68.7 38.1 0 68.8 30.7 68.8 68.7 0 38.1-30.7 68.8-68.8 68.8z"/>
		<path id="Layer 1 copy 15" class="s2" d="m1589.7 684.5c-38 0-68.7-30.7-68.7-68.8 0-38 30.7-68.7 68.7-68.7 38.1 0 68.8 30.7 68.8 68.7 0 38.1-30.7 68.8-68.8 68.8z"/>
		<path id="Layer 1 copy 21" class="s3" d="m1697.7 988.5c-38 0-68.7-30.7-68.7-68.7 0-38.1 30.7-68.8 68.7-68.8 38.1 0 68.8 30.7 68.8 68.8 0 38-30.7 68.7-68.8 68.7z"/>
		<path id="Layer 1 copy 11" class="s2" d="m613.7 813.5c-38 0-68.7-30.7-68.7-68.8 0-38 30.7-68.7 68.7-68.7 38.1 0 68.8 30.7 68.8 68.7 0 38.1-30.7 68.8-68.8 68.8z"/>
		<path id="Layer 1 copy 16" class="s3" d="m696.7 335.5c-38 0-68.7-30.7-68.7-68.8 0-38 30.7-68.7 68.7-68.7 38.1 0 68.8 30.7 68.8 68.7 0 38.1-30.7 68.8-68.8 68.8z"/>
		<path id="Layer 1 copy 12" class="s2" d="m308.7 286.5c-38 0-68.7-30.7-68.7-68.8 0-38 30.7-68.7 68.7-68.7 38.1 0 68.8 30.7 68.8 68.7 0 38.1-30.7 68.8-68.8 68.8z"/>
		<path id="Layer 1 copy 13" class="s2" d="m997.7 292.5c-38 0-68.7-30.7-68.7-68.8 0-38 30.7-68.7 68.7-68.7 38.1 0 68.8 30.7 68.8 68.7 0 38.1-30.7 68.8-68.8 68.8z"/>
		<path id="Layer 1 copy 40" class="s2" d="m398.8 539.5c-38.1 0-68.8-30.7-68.8-68.7 0-38.1 30.7-68.8 68.8-68.8 38 0 68.7 30.7 68.7 68.8 0 38-30.7 68.7-68.7 68.7z"/>
		<path id="Layer 1 copy 6" class="s3" d="m236.7 942.5c-38 0-68.7-30.7-68.7-68.8 0-38 30.7-68.7 68.7-68.7 38.1 0 68.8 30.7 68.8 68.7 0 38.1-30.7 68.8-68.8 68.8z"/>
	</g>
</svg>