<?xml version="1.0" encoding="UTF-8"?>
<svg version="1.2" viewBox="0 0 1920 1080" xmlns="http://www.w3.org/2000/svg">
<title>circles-bg</title>
<style>.s0 { fill: #008200 } 
		.s1 { fill: #05ec8d } 
		.s2 { fill: #00ff00 } 
		.s3 { fill: #12ff8d }</style>
<g opacity=".5">
<path id="a" class="s0" d="m0.4 1411.7c-183.3 0-331.4-148.1-331.4-331.3 0-183.3 148.1-331.4 331.4-331.4 183.2 0 331.3 148.1 331.3 331.4 0 183.2-148.1 331.3-331.3 331.3z"/>
<path class="s0" d="m0.4 331.7c-183.3 0-331.4-148.1-331.4-331.3 0-183.3 148.1-331.4 331.4-331.4 183.2 0 331.3 148.1 331.3 331.4 0 183.2-148.1 331.3-331.3 331.3z"/>
<path class="s0" d="m1920.4 331.7c-183.3 0-331.4-148.1-331.4-331.3 0-183.3 148.1-331.4 331.4-331.4 183.2 0 331.3 148.1 331.3 331.4 0 183.2-148.1 331.3-331.3 331.3z"/>
<path class="s0" d="m1920.4 1411.7c-183.3 0-331.4-148.1-331.4-331.3 0-183.3 148.1-331.4 331.4-331.4 183.2 0 331.3 148.1 331.3 331.4 0 183.2-148.1 331.3-331.3 331.3z"/>
<path class="s0" d="m492.8 911.5c-116 0-209.8-93.8-209.8-209.7 0-116 93.8-209.8 209.8-209.8 115.9 0 209.7 93.8 209.7 209.8 0 115.9-93.8 209.7-209.7 209.7z"/>
<path class="s0" d="m752 535c-115 0-208-93-208-208s93-208 208-208 208 93 208 208-93 208-208 208z"/>
<path class="s1" d="m144 548c-59.2 0-107-47.8-107-107s47.8-107 107-107 107 47.8 107 107-47.8 107-107 107z"/>
<path class="s1" d="m1798 660c-59.2 0-107-47.8-107-107s47.8-107 107-107 107 47.8 107 107-47.8 107-107 107z"/>
<path class="s1" d="m909.7 1052.5c-66.7 0-120.7-54-120.7-120.8 0-66.7 54-120.7 120.7-120.7 66.8 0 120.8 54 120.8 120.7 0 66.8-54 120.8-120.8 120.8z"/>
<path class="s1" d="m1013.5 760c-40.6 0-73.5-32.9-73.5-73.5s32.9-73.5 73.5-73.5 73.5 32.9 73.5 73.5-32.9 73.5-73.5 73.5z"/>
<path class="s1" d="m1476.5 265c-50.6 0-91.5-40.9-91.5-91.5s40.9-91.5 91.5-91.5 91.5 40.9 91.5 91.5-40.9 91.5-91.5 91.5z"/>
<path class="s0" d="m491.7 138.5c-54.6 0-98.7-44.1-98.7-98.8 0-54.6 44.1-98.7 98.7-98.7 54.7 0 98.8 44.1 98.8 98.7 0 54.7-44.1 98.8-98.8 98.8z"/>
<path class="s1" d="m612.5 1088c-24.6 0-44.5-19.9-44.5-44.5s19.9-44.5 44.5-44.5 44.5 19.9 44.5 44.5-19.9 44.5-44.5 44.5z"/>
<path class="s1" d="m780.5 45c-24.6 0-44.5-19.9-44.5-44.5s19.9-44.5 44.5-44.5 44.5 19.9 44.5 44.5-19.9 44.5-44.5 44.5z"/>
<path class="s0" d="m1144.7 87.5c-54.6 0-98.7-44.1-98.7-98.8 0-54.6 44.1-98.7 98.7-98.7 54.7 0 98.8 44.1 98.8 98.7 0 54.7-44.1 98.8-98.8 98.8z"/>
<path class="s0" d="m1286.9 636.9c-132.1 0-238.9-106.8-238.9-239 0-132.1 106.8-238.9 238.9-238.9 132.2 0 239 106.8 239 238.9 0 132.2-106.8 239-239 239z"/>
<path class="s0" d="m1385.9 1126.9c-132.1 0-238.9-106.8-238.9-239 0-132.1 106.8-238.9 238.9-238.9 132.2 0 239 106.8 239 238.9 0 132.2-106.8 239-239 239z"/>
</g>
<path class="s2" d="m-0.3 212.5c-38 0-68.7-30.7-68.7-68.8 0-38 30.7-68.7 68.7-68.7 38.1 0 68.8 30.7 68.8 68.7 0 38.1-30.7 68.8-68.8 68.8z"/>
<path class="s2" d="m-0.3 682.5c-38 0-68.7-30.7-68.7-68.8 0-38 30.7-68.7 68.7-68.7 38.1 0 68.8 30.7 68.8 68.7 0 38.1-30.7 68.8-68.8 68.8z"/>
<path class="s2" d="m1919.7 212.5c-38 0-68.7-30.7-68.7-68.8 0-38 30.7-68.7 68.7-68.7 38.1 0 68.8 30.7 68.8 68.7 0 38.1-30.7 68.8-68.8 68.8z"/>
<path class="s2" d="m1919.7 682.5c-38 0-68.7-30.7-68.7-68.8 0-38 30.7-68.7 68.7-68.7 38.1 0 68.8 30.7 68.8 68.7 0 38.1-30.7 68.8-68.8 68.8z"/>
<path class="s2" d="m481.7 68.5c-38 0-68.7-30.7-68.7-68.8 0-38 30.7-68.7 68.7-68.7 38.1 0 68.8 30.7 68.8 68.7 0 38.1-30.7 68.8-68.8 68.8z"/>
<path class="s2" d="m1271.7 68.5c-38 0-68.7-30.7-68.7-68.8 0-38 30.7-68.7 68.7-68.7 38.1 0 68.8 30.7 68.8 68.7 0 38.1-30.7 68.8-68.8 68.8z"/>
<path class="s2" d="m481.7 1148.5c-38 0-68.7-30.7-68.7-68.8 0-38 30.7-68.7 68.7-68.7 38.1 0 68.8 30.7 68.8 68.7 0 38.1-30.7 68.8-68.8 68.8z"/>
<path class="s2" d="m1271.7 1148.5c-38 0-68.7-30.7-68.7-68.8 0-38 30.7-68.7 68.7-68.7 38.1 0 68.8 30.7 68.8 68.7 0 38.1-30.7 68.8-68.8 68.8z"/>
<path class="s2" d="m909.7 608.5c-38 0-68.7-30.7-68.7-68.8 0-38 30.7-68.7 68.7-68.7 38.1 0 68.8 30.7 68.8 68.7 0 38.1-30.7 68.8-68.8 68.8z"/>
<path class="s2" d="m1363.7 326.5c-38 0-68.7-30.7-68.7-68.8 0-38 30.7-68.7 68.7-68.7 38.1 0 68.8 30.7 68.8 68.7 0 38.1-30.7 68.8-68.8 68.8z"/>
<path class="s3" d="m1237.7 574.5c-38 0-68.7-30.7-68.7-68.8 0-38 30.7-68.7 68.7-68.7 38.1 0 68.8 30.7 68.8 68.7 0 38.1-30.7 68.8-68.8 68.8z"/>
<path class="s2" d="m1009.7 945.5c-38 0-68.7-30.7-68.7-68.8 0-38 30.7-68.7 68.7-68.7 38.1 0 68.8 30.7 68.8 68.7 0 38.1-30.7 68.8-68.8 68.8z"/>
<path class="s2" d="m1360.7 872.5c-38 0-68.7-30.7-68.7-68.8 0-38 30.7-68.7 68.7-68.7 38.1 0 68.8 30.7 68.8 68.7 0 38.1-30.7 68.8-68.8 68.8z"/>
<path class="s2" d="m1681.7 376.5c-38 0-68.7-30.7-68.7-68.8 0-38 30.7-68.7 68.7-68.7 38.1 0 68.8 30.7 68.8 68.7 0 38.1-30.7 68.8-68.8 68.8z"/>
<path class="s2" d="m1589.7 684.5c-38 0-68.7-30.7-68.7-68.8 0-38 30.7-68.7 68.7-68.7 38.1 0 68.8 30.7 68.8 68.7 0 38.1-30.7 68.8-68.8 68.8z"/>
<path class="s3" d="m1697.7 988.5c-38 0-68.7-30.7-68.7-68.7 0-38.1 30.7-68.8 68.7-68.8 38.1 0 68.8 30.7 68.8 68.8 0 38-30.7 68.7-68.8 68.7z"/>
<path class="s2" d="m613.7 813.5c-38 0-68.7-30.7-68.7-68.8 0-38 30.7-68.7 68.7-68.7 38.1 0 68.8 30.7 68.8 68.7 0 38.1-30.7 68.8-68.8 68.8z"/>
<path class="s3" d="m696.7 335.5c-38 0-68.7-30.7-68.7-68.8 0-38 30.7-68.7 68.7-68.7 38.1 0 68.8 30.7 68.8 68.7 0 38.1-30.7 68.8-68.8 68.8z"/>
<path class="s2" d="m308.7 286.5c-38 0-68.7-30.7-68.7-68.8 0-38 30.7-68.7 68.7-68.7 38.1 0 68.8 30.7 68.8 68.7 0 38.1-30.7 68.8-68.8 68.8z"/>
<path class="s2" d="m997.7 292.5c-38 0-68.7-30.7-68.7-68.8 0-38 30.7-68.7 68.7-68.7 38.1 0 68.8 30.7 68.8 68.7 0 38.1-30.7 68.8-68.8 68.8z"/>
<path class="s2" d="m398.8 539.5c-38.1 0-68.8-30.7-68.8-68.7 0-38.1 30.7-68.8 68.8-68.8 38 0 68.7 30.7 68.7 68.8 0 38-30.7 68.7-68.7 68.7z"/>
<path class="s3" d="m236.7 942.5c-38 0-68.7-30.7-68.7-68.8 0-38 30.7-68.7 68.7-68.7 38.1 0 68.8 30.7 68.8 68.7 0 38.1-30.7 68.8-68.8 68.8z"/>
</svg>
