<svg version="1.2" xmlns="http://www.w3.org/2000/svg" viewBox="0 0 245 172" width="245" height="172"><style>.a{fill:#ccc}</style><path fill-rule="evenodd" class="a" d="m244.1 85.9c0 0 0 39.5-5.1 58.5-2.8 10.4-11 18.6-21.5 21.4-18.9 5.1-94.9 5.1-94.9 5.1 0 0-76 0-94.9-5.1-10.5-2.8-18.7-11-21.5-21.4-5.1-19-5.1-58.5-5.1-58.5 0 0 0-39.6 5.1-58.5 2.8-10.5 11-18.7 21.5-21.5 18.9-5.1 94.9-5.1 94.9-5.1 0 0 76 0 94.9 5.1 10.5 2.8 18.7 11 21.5 21.5 5.1 18.9 5.1 58.5 5.1 58.5zm-82.7 0l-63.1-36.5v72.9z"/></svg>